<?xml version="1.0" standalone="no"?>
<!DOCTYPE svg PUBLIC "-//W3C//DTD SVG 20010904//EN"
 "http://www.w3.org/TR/2001/REC-SVG-20010904/DTD/svg10.dtd">
<svg version="1.0" xmlns="http://www.w3.org/2000/svg"
 width="442.000000pt" height="89.000000pt" viewBox="0 0 442.000000 89.000000"
 preserveAspectRatio="xMidYMid meet">

<g transform="translate(0.000000,89.000000) scale(0.100000,-0.100000)"
fill="#E22028" stroke="none">
<path d="M386 842 c15 -66 78 -175 136 -237 46 -49 80 -75 142 -105 44 -22 96
-43 114 -46 l34 -7 -7 49 c-21 152 -139 269 -343 344 l-82 30 6 -28z"/>
<path d="M3912 835 c-197 -81 -302 -192 -319 -336 l-6 -50 29 7 c182 44 343
199 392 377 13 46 11 46 -96 2z"/>
<path d="M840 604 c-6 -14 -10 -90 -10 -169 0 -150 8 -195 36 -195 9 0 43 24
75 54 35 33 81 64 116 78 56 22 68 23 343 23 274 0 287 -1 342 -23 32 -13 83
-47 118 -78 34 -30 67 -53 73 -51 28 9 37 54 36 192 -1 77 -4 151 -8 165 -11
39 -44 37 -86 -5 -49 -48 -100 -80 -161 -99 -44 -14 -94 -16 -336 -14 l-284 3
-66 33 c-36 19 -83 51 -104 73 -44 45 -70 50 -84 13z"/>
<path d="M2440 604 c-13 -33 -13 -295 0 -329 17 -44 38 -42 89 10 26 28 73 61
111 79 l65 31 295 0 295 0 66 -31 c36 -17 87 -52 113 -78 26 -25 52 -46 56
-46 5 0 16 10 24 22 13 18 16 53 16 170 0 80 -4 158 -10 172 -15 39 -45 32
-106 -23 -30 -28 -79 -60 -112 -73 -54 -22 -71 -23 -331 -26 -234 -2 -280 -1
-325 14 -62 20 -133 65 -164 105 -30 38 -69 39 -82 3z"/>
<path d="M2112 518 l-83 -82 85 -85 86 -86 85 85 85 85 -82 82 c-46 46 -85 83
-88 83 -3 0 -42 -37 -88 -82z"/>
<path d="M230 547 c-66 -16 -112 -35 -169 -71 -51 -33 -46 -43 38 -86 115 -57
199 -71 303 -49 55 12 157 57 196 87 l24 18 -39 26 c-105 69 -248 99 -353 75z"/>
<path d="M3965 546 c-46 -14 -141 -60 -169 -82 -20 -14 -20 -14 0 -29 42 -34
140 -77 203 -91 78 -16 163 -6 254 31 56 22 127 64 127 75 0 12 -108 70 -167
89 -71 24 -185 27 -248 7z"/>
<path d="M3594 378 c14 -107 77 -196 190 -269 52 -34 200 -99 225 -99 13 0 -5
63 -36 125 -75 149 -201 252 -357 289 l-29 7 7 -53z"/>
<path d="M724 402 c-120 -42 -240 -152 -298 -275 -18 -40 -36 -84 -40 -99 -6
-26 -6 -26 32 -16 71 19 201 88 261 138 67 56 115 141 127 223 7 55 1 57 -82
29z"/>
</g>
</svg>
