<?xml version="1.0" standalone="no"?>
<!DOCTYPE svg PUBLIC "-//W3C//DTD SVG 20010904//EN"
 "http://www.w3.org/TR/2001/REC-SVG-20010904/DTD/svg10.dtd">
<svg version="1.0" xmlns="http://www.w3.org/2000/svg"
 width="512.000000pt" height="512.000000pt" viewBox="0 0 512.000000 512.000000"
 preserveAspectRatio="xMidYMid meet">

<g transform="translate(0.000000,512.000000) scale(0.100000,-0.100000)"
fill="#e22028" stroke="none">
<path d="M917 4334 c-472 -86 -838 -469 -907 -949 -13 -93 -13 -1557 0 -1650
43 -296 201 -565 438 -745 91 -70 266 -154 387 -187 l100 -28 1625 0 1625 0
98 27 c207 57 382 162 530 318 165 174 263 376 297 615 6 42 10 375 10 825 0
450 -4 783 -10 825 -34 239 -132 441 -297 615 -148 156 -323 261 -530 318
l-98 27 -1595 2 c-1344 1 -1607 -1 -1673 -13z m1803 -1375 c327 -187 601 -348
608 -356 18 -25 15 -59 -10 -87 -18 -20 -942 -536 -1150 -642 -58 -29 -72 -30
-98 -4 -20 20 -20 33 -20 705 0 672 0 685 20 705 11 11 28 20 38 20 9 0 285
-153 612 -341z"/>
</g>
</svg>
